<?xml version="1.0"?>
<svg width="512" height="512" xmlns="http://www.w3.org/2000/svg" xmlns:svg="http://www.w3.org/2000/svg" enable-background="new 0 0 512 512">
 <g class="layer">
  <title>Layer 1</title>
  <g clip-rule="evenodd" fill-rule="evenodd" id="svg_1"/>
  <path d="m512,291.35c0,-79.12 -42.88,-152.37 -111.9,-191.17c-26.38,-14.82 -54.89,-23.8 -84.85,-26.79c0.01,-0.05 0.02,-0.09 0.03,-0.14c3.39,-19.64 4.46,-45.68 -9.67,-58.08c-14.82,-13.34 -43.26,-7.53 -58.9,-2.89c-17.56,5.23 -34.22,18.32 -48.2,37.88l-15.13,21.28l-19.4,-6.42l10.51,-11.84c4.25,-4.78 6.37,-10.94 5.99,-17.36c-0.38,-6.42 -3.22,-12.28 -7.99,-16.51l-13.24,-11.77c-4.77,-4.25 -10.93,-6.37 -17.34,-6c-6.39,0.39 -12.25,3.22 -16.5,8l-29.31,33.01l-18.17,-6.02c-21.06,-6.97 -39.41,2.59 -46.59,10.7l-11.77,13.23c-5.47,6.16 -7.67,12.28 -6.53,18.2c1.24,6.47 6.24,11.82 15.22,16.34l101.19,52.32l-31.7,44.6l-47.26,-16.63c-17.02,-6 -32.21,1.95 -38.29,8.78l-6.44,7.26c-4.64,5.19 -6.49,10.45 -5.5,15.61c1.51,7.98 9.34,12.21 12.45,13.78l44.19,28.89c-10.18,17.86 -5.24,34.04 4.36,42.29c3.35,2.87 7.8,5.18 12.98,6.15c0.84,26.08 6.21,51.47 16.02,75.57c1.19,2.93 4.02,4.71 7,4.71c0.95,0 1.91,-0.18 2.85,-0.56c3.86,-1.57 5.72,-5.98 4.15,-9.85c-9.21,-22.63 -14.22,-46.48 -14.93,-71c4,-1.32 8.17,-3.5 12.41,-6.77l35.01,40.91c1.94,2.93 7.04,10.15 15.09,10.73c0.36,0.02 0.71,0.04 1.06,0.04c4.86,0 9.51,-2.47 13.82,-7.33l6.46,-7.27c6.09,-6.86 12.22,-22.94 4.2,-39.12l-22.73,-45.76l40.42,-36.64l24.64,36.47c1.46,2.16 3.84,3.32 6.27,3.32c1.46,0 2.93,-0.42 4.22,-1.29c3.46,-2.34 4.37,-7.04 2.04,-10.5l-25.86,-38.26l45.92,-41.64l11.48,24.58c0.05,0.11 0.1,0.22 0.15,0.32l33.43,71.58c6.5,13.89 0.96,26.97 -2.74,31.13l-11.78,13.24c-2.57,2.91 -4.28,3.65 -4.89,3.58c-0.86,-0.06 -3.21,-1.51 -6.57,-6.6l-20.84,-30.84c-2.34,-3.45 -7.04,-4.36 -10.5,-2.03c-3.45,2.34 -4.36,7.04 -2.03,10.5l20.8,30.76c5.58,8.47 11.5,12.82 18.07,13.29c0.39,0.02 0.77,0.04 1.16,0.04c5.6,0 11.02,-2.92 16.11,-8.67l11.76,-13.23c7.22,-8.11 14.55,-27.47 5.14,-47.57l-8.1,-17.35l29.33,-33.03c8.75,-9.88 7.85,-25.07 -2.01,-33.86l-13.24,-11.77c-4.78,-4.25 -10.93,-6.39 -17.34,-6c-6.41,0.38 -12.27,3.22 -16.49,8l-10.53,11.84l-8.65,-18.53l19.36,-17.56c0.01,0 0.02,-0.01 0.02,-0.02c12.87,-11.74 22.18,-24.48 27.52,-37.46c17.67,1.52 34.81,5.28 51.26,11.23c-5.32,5.89 -8.37,12.16 -9.2,18.95c-2.12,17.32 10.79,32.66 23.27,47.49c17.17,20.4 24.33,31.21 15.91,42.29c-19.84,26.07 -26.69,46.69 -20.35,61.28c3.13,7.21 10.94,16.22 30.39,18.2c0.62,0.06 1.29,0.12 2,0.19c14.14,1.28 26.97,3.83 28.74,20.68c1.73,16.53 17.42,28.4 38.15,28.86c0.38,0 0.75,0.01 1.12,0.01c6.99,0 14.15,-1.45 20.44,-4.49c-4.62,22.27 -12.88,43.23 -24.12,62.21c-21.1,-19.23 -47.3,-28.63 -73.18,-25.95c-21.68,2.24 -39.63,12.7 -49.26,28.71c-10.11,16.86 -27.21,22.97 -39.77,25.13c-21.58,3.71 -42.3,-1.92 -48.95,-7.41c-21.11,-17.45 -46.32,-22.35 -65.78,-12.79c-15.95,7.83 -25.97,24.06 -28.57,45.57c-15.76,-13.15 -29.69,-28.79 -41.19,-46.62c-2.27,-3.51 -6.94,-4.52 -10.45,-2.26c-3.51,2.26 -4.52,6.94 -2.26,10.45c40.63,63 109.39,100.62 183.95,100.62c58.48,0 113.46,-22.8 154.81,-64.19c37.47,-37.5 59.68,-86.2 63.52,-138.56c0,-0.01 0,-0.01 0,-0.01c0.06,-0.42 0.08,-0.83 0.08,-1.23c0.34,-5.03 0.52,-10.08 0.52,-15.16zm-217.5,-131.44c1.56,-1.76 3.72,-2.8 6.08,-2.95c2.37,-0.14 4.64,0.65 6.4,2.21l13.24,11.77c3.66,3.26 3.99,8.89 0.75,12.55l-24.99,28.13l-16.34,-34.99l14.86,-16.72zm-157.79,-140.33c1.56,-1.76 3.73,-2.81 6.1,-2.95c2.38,-0.16 4.64,0.64 6.39,2.2l13.25,11.78c1.76,1.56 2.8,3.72 2.95,6.1c0.14,2.39 -0.65,4.67 -2.21,6.44l-14.83,16.7l-36.64,-12.13l24.99,-28.14zm-101.58,61.95c-6.62,-3.32 -7.2,-5.48 -7.25,-5.71c-0.11,-0.6 0.39,-2.39 2.99,-5.32l11.77,-13.24c3.69,-4.16 16,-11.19 30.55,-6.38l74.84,24.78c0.13,0.05 0.26,0.09 0.39,0.13l25.8,8.54l-35.93,50.55l-103.16,-53.35zm-15.25,125.88c-3.33,-1.66 -4.41,-2.85 -4.71,-3.27c0.13,-0.36 0.55,-1.26 1.89,-2.77l6.44,-7.27c2.61,-2.93 11.77,-8.15 21.97,-4.55l43.17,15.19l-23.08,32.47l-44.94,-29.37c-0.24,-0.15 -0.49,-0.3 -0.74,-0.43zm143.96,87.42c4.8,9.67 0.66,19.41 -1.96,22.37l-6.46,7.27c-1.33,1.49 -2.17,2.01 -2.52,2.18c-0.45,-0.25 -1.75,-1.19 -3.78,-4.29c-0.18,-0.27 -0.37,-0.52 -0.58,-0.77l-35.52,-41.49l29.99,-27.2l20.83,41.93zm109.38,-180.38l-23.3,21.12c-0.13,0.11 -0.25,0.22 -0.37,0.34l-156.07,141.5c-4.18,3.45 -8.47,5.42 -12.42,5.87c-0.09,0.01 -0.18,0.02 -0.26,0.03c-3.65,0.36 -7,-0.57 -9.69,-2.88c-4.93,-4.23 -7.06,-13.22 -0.81,-23.81l76.42,-107.51c0.06,-0.07 0.11,-0.15 0.16,-0.23l63.94,-89.95c11.99,-16.78 25.89,-27.9 40.2,-32.16c20.81,-6.18 37.86,-6.33 44.55,-0.31c6.67,5.86 8.52,22.8 4.81,44.23c-2.51,14.7 -11.91,29.83 -27.16,43.76zm198.21,207.76c-10.89,-0.24 -22.44,-5.58 -23.46,-15.33c-3.21,-30.59 -30.67,-33.09 -42.4,-34.16c-0.66,-0.06 -1.29,-0.12 -1.87,-0.17c-6.7,-0.68 -15.27,-2.83 -18.03,-9.18c-3.83,-8.81 2.92,-25.62 18.52,-46.11c16.67,-21.92 -1.65,-43.68 -16.37,-61.17c-10.4,-12.36 -21.16,-25.14 -19.84,-35.92c0.6,-4.92 3.73,-9.71 9.49,-14.55c5.15,2.36 10.23,4.94 15.23,7.74c64.26,36.12 104.19,104.32 104.19,177.99c0,4.95 -0.19,9.86 -0.54,14.73c-2.2,12.24 -14.72,16.36 -24.92,16.13zm-178.36,173.17c-42.06,0 -82.13,-12.88 -115.61,-36.08c0.13,-20.96 7.61,-36.52 20.79,-43c14.06,-6.9 33.02,-2.74 49.5,10.88c12.1,9.99 38.39,14.57 61.13,10.66c15.68,-2.7 37.11,-10.49 50.17,-32.25c7.04,-11.72 21.19,-19.74 37.85,-21.46c22.3,-2.31 45.07,6.35 63.31,23.84c-36.87,52.8 -98.04,87.41 -167.14,87.41z" fill="black" id="svg_22"/>
  <path d="m248.27,43.55c-4.16,0.34 -7.25,4 -6.9,8.16c0.35,4.16 4,7.26 8.16,6.9c7.58,-0.62 17.63,8.6 18.55,17.04c0.43,3.87 3.7,6.73 7.51,6.73c0.27,0 0.55,-0.01 0.83,-0.04c4.15,-0.46 7.14,-4.19 6.69,-8.34c-1.83,-16.69 -19.08,-31.79 -34.84,-30.45z" id="svg_23" transform="matrix(1 0 0 1 0 0)"/>
 </g>
</svg>